<?xml version="1.0" encoding="UTF-8" standalone="no"?>
<svg width="100" height="100" viewBox="0 0 100 100" xmlns="http://www.w3.org/2000/svg">
  <!-- Gradient definition -->
  <defs>
    <linearGradient id="cloudGradient" x1="0" y1="0" x2="0" y2="1">
      <stop offset="0%" stop-color="#cde3fd"/>
      <stop offset="100%" stop-color="#4a90e2"/>
    </linearGradient>
  </defs>

  <!-- Shadow underneath cloud -->
  <ellipse cx="50" cy="72" rx="24" ry="4" fill="#000000" opacity="0.15"/>

  <!-- Main cloud shape -->
  <path d="M28 58
           a14 14 0 0 1 1 -27
           a20 20 0 0 1 38 -6
           a15 15 0 0 1 19 16
           a16 16 0 0 1 -16 17
           H30z"
        fill="url(#cloudGradient)" stroke="#3367bd" stroke-width="1.5"/>

  <!-- Inner highlight to give volume -->
  <path d="M33 55
           a10 10 0 0 1 0 -18
           a16 16 0 0 1 31 -5
           a11 11 0 0 1 14 12
           a12 12 0 0 1 -11 12
           H34z"
        fill="white" opacity="0.1"/>

  <!-- Top glint for lighting -->
  <path d="M42 35
           q5 -6 12 0"
        stroke="white" stroke-width="1" fill="none" opacity="0.3"/>
</svg> 