<?xml version="1.0" encoding="UTF-8" standalone="no"?>
<svg width="100" height="100" viewBox="0 0 100 100" xmlns="http://www.w3.org/2000/svg">
  <!-- Scissors -->
  <path d="M35,25 C32,22 27,25 25,30 C23,35 25,40 30,40 C35,40 40,35 35,30 L60,50 L35,70 C40,65 35,60 30,60 C25,60 23,65 25,70 C27,75 32,78 35,75 L50,58 L65,75 C68,78 73,75 75,70 C77,65 75,60 70,60 C65,60 60,65 65,70 L40,50 L65,30 C60,35 65,40 70,40 C75,40 77,35 75,30 C73,25 68,22 65,25 L50,42 Z" 
        fill="#505050" />
        
  <!-- Scissor pivot -->
  <circle cx="40" cy="50" r="3" fill="#ffffff" />
</svg> 