<?xml version="1.0" encoding="UTF-8" standalone="no"?>
<svg width="100" height="100" viewBox="0 0 100 100" xmlns="http://www.w3.org/2000/svg">
  <!-- Chassis shadow -->
  <ellipse cx="50" cy="72" rx="30" ry="4" fill="#000" opacity="0.12"/>

  <!-- Main chassis -->
  <rect x="16" y="38" width="68" height="24" rx="2" ry="2" fill="#5b0f0f" stroke="#3b0a0a" stroke-width="1.5"/>

  <!-- Top bevel -->
  <path d="M16 38 h68 l-2 -3 h-64 z" fill="#751212"/>

  <!-- Bottom bevel -->
  <path d="M16 62 h68 l-2 3 h-64 z" fill="#2b0909"/>

  <!-- Side mount holes -->
  <circle cx="18" cy="40" r="1.5" fill="#aaa"/>
  <circle cx="82" cy="40" r="1.5" fill="#aaa"/>
  <circle cx="18" cy="60" r="1.5" fill="#aaa"/>
  <circle cx="82" cy="60" r="1.5" fill="#aaa"/>

  <!-- Port panel -->
  <rect x="25" y="45" width="50" height="12" rx="1.5" fill="#1a1a1a"/>

  <!-- Heavier ports (spaced further for distinctness) -->
  <g fill="#facc15">
    <rect x="28" y="47" width="4" height="8" rx="0.5"/>
    <rect x="35" y="47" width="4" height="8" rx="0.5"/>
    <rect x="42" y="47" width="4" height="8" rx="0.5"/>
    <rect x="49" y="47" width="4" height="8" rx="0.5"/>
    <rect x="56" y="47" width="4" height="8" rx="0.5"/>
    <rect x="63" y="47" width="4" height="8" rx="0.5"/>
    <rect x="70" y="47" width="4" height="8" rx="0.5"/>
  </g>

  <!-- Front panel details (vent slot style) -->
  <line x1="25" y1="58" x2="75" y2="58" stroke="#3b0a0a" stroke-width="0.8" stroke-dasharray="2,2"/>
</svg> 