<?xml version="1.0" encoding="UTF-8" standalone="no"?>
<svg width="100" height="100" viewBox="0 0 100 100" xmlns="http://www.w3.org/2000/svg">
  <!-- Redo arrow -->
  <path d="M25,65 C25,45 40,30 60,30 L70,30 L70,15 L85,35 L70,55 L70,40 L60,40 C45,40 35,50 35,65 C35,80 45,90 60,90 L70,90 L70,80 L60,80 C50,80 45,73 45,65 C45,57 50,50 60,50 L85,50 L85,60 L60,60 C55,60 55,65 55,65 C55,65 55,70 60,70 L85,70 L85,90 L60,90"
        fill="none" 
        stroke="#505050" 
        stroke-width="4" 
        stroke-linejoin="round" />
</svg> 