<?xml version="1.0" encoding="UTF-8" standalone="no"?>
<svg width="256" height="256" viewBox="0 0 256 256" xmlns="http://www.w3.org/2000/svg">
  <!-- Shield outline -->
  <path d="M128,18 L30,58 L30,118 C30,173.23 71.59,224.16 128,238 C184.41,224.16 226,173.23 226,118 L226,58 L128,18 Z" 
        fill="#2563eb" stroke="#1e40af" stroke-width="6"/>
  
  <!-- Lighter inner shield -->
  <path d="M128,38 L50,72 L50,118 C50,164.23 84.59,207.16 128,218 C171.41,207.16 206,164.23 206,118 L206,72 L128,38 Z" 
        fill="#3b82f6"/>
  
  <!-- Network graph nodes and connections -->
  <g fill="#ffffff" stroke="#1e40af" stroke-width="2">
    <!-- Node 1 (top) -->
    <circle cx="128" cy="80" r="12"/>
    
    <!-- Node 2 (left) -->
    <circle cx="90" cy="120" r="12"/>
    
    <!-- Node 3 (right) -->
    <circle cx="166" cy="120" r="12"/>
    
    <!-- Node 4 (bottom left) -->
    <circle cx="90" cy="170" r="12"/>
    
    <!-- Node 5 (bottom right) -->
    <circle cx="166" cy="170" r="12"/>
    
    <!-- Node 6 (center) -->
    <circle cx="128" cy="140" r="14"/>
    
    <!-- Connections -->
    <line x1="128" y1="80" x2="90" y2="120" stroke-width="3"/>
    <line x1="128" y1="80" x2="166" y2="120" stroke-width="3"/>
    <line x1="90" y1="120" x2="90" y2="170" stroke-width="3"/>
    <line x1="166" y1="120" x2="166" y2="170" stroke-width="3"/>
    <line x1="90" y1="120" x2="128" y2="140" stroke-width="3"/>
    <line x1="166" y1="120" x2="128" y2="140" stroke-width="3"/>
    <line x1="90" y1="170" x2="128" y2="140" stroke-width="3"/>
    <line x1="166" y1="170" x2="128" y2="140" stroke-width="3"/>
  </g>
  
  <!-- Text at the bottom of the shield -->
  <text x="128" y="200" font-family="Arial, Helvetica, sans-serif" font-size="16" font-weight="bold" text-anchor="middle" fill="#ffffff">GRAPHNIST</text>
</svg> 