<?xml version="1.0" encoding="UTF-8" standalone="no"?>
<svg width="100" height="100" viewBox="0 0 100 100" xmlns="http://www.w3.org/2000/svg">
  <!-- Undo arrow -->
  <path d="M75,65 C75,45 60,30 40,30 L30,30 L30,15 L15,35 L30,55 L30,40 L40,40 C55,40 65,50 65,65 C65,80 55,90 40,90 L30,90 L30,80 L40,80 C50,80 55,73 55,65 C55,57 50,50 40,50 L15,50 L15,60 L40,60 C45,60 45,65 45,65 C45,65 45,70 40,70 L15,70 L15,90 L40,90"
        fill="none" 
        stroke="#505050" 
        stroke-width="4" 
        stroke-linejoin="round"/>
</svg> 